<svg height="512" viewBox="0 0 64 64" width="512" xmlns="http://www.w3.org/2000/svg"><path d="m61 31v22a2.006 2.006 0 0 1 -2 2h-4a6 6 0 0 0 -12 0h-18a6 6 0 0 0 -12 0h-8a2.006 2.006 0 0 1 -2-2v-16h36v-18h8.7c.79 1.47 1.67 2.87 2.47 4.08a8.954 8.954 0 0 0 -1.17-.08h-6v14h14v-6a7.979 7.979 0 0 0 -2.59-5.89c.65-.89 1.45-2.04 2.27-3.34a11.986 11.986 0 0 1 4.32 9.23z" fill="#ffde55"/><path d="m53 3a8 8 0 0 1 8 8c0 3.16-2.22 7.44-4.32 10.77-.82 1.3-1.62 2.45-2.27 3.34-.83 1.17-1.41 1.89-1.41 1.89s-1.29-1.61-2.83-3.92c-.8-1.21-1.68-2.61-2.47-4.08-1.49-2.72-2.7-5.66-2.7-8a8 8 0 0 1 8-8zm4 8a4 4 0 1 0 -4 4 4 4 0 0 0 4-4z" fill="#b2fa09"/><path d="m57 31v6h-14v-14h6a8.954 8.954 0 0 1 1.17.08c1.54 2.31 2.83 3.92 2.83 3.92s.58-.72 1.41-1.89a7.979 7.979 0 0 1 2.59 5.89z" fill="#46f8ff"/><circle cx="53" cy="11" fill="#ff3051" r="4"/><path d="m49 49a6 6 0 1 1 -6 6 6 6 0 0 1 6-6zm2 6a2 2 0 1 0 -2 2 2.006 2.006 0 0 0 2-2z" fill="#9cdd05"/><circle cx="49" cy="55" fill="#ff9811" r="2"/><path d="m39 19v18h-36v-6a2.006 2.006 0 0 0 2 2h26a2.006 2.006 0 0 0 2-2v-12z" fill="#ff9811"/><path d="m33 19v12a2.006 2.006 0 0 1 -2 2h-26a2.006 2.006 0 0 1 -2-2v-18h12v4l3-2 3 2v-4h12z" fill="#ffc477"/><path d="m21 9h12v4h-12z" fill="#ee8700"/><path d="m33 5v4h-12v-6h10a2.006 2.006 0 0 1 2 2z" fill="#ffc477"/><path d="m19 49a6 6 0 1 1 -6 6 6 6 0 0 1 6-6zm2 6a2 2 0 1 0 -2 2 2.006 2.006 0 0 0 2-2z" fill="#9cdd05"/><path d="m21 13v4l-3-2-3 2v-4-4-6h6v6z" fill="#ee8700"/><circle cx="19" cy="55" fill="#ff9811" r="2"/><path d="m3 9h12v4h-12z" fill="#ee8700"/><path d="m15 3v6h-12v-4a2.006 2.006 0 0 1 2-2z" fill="#ffc477"/><path d="m6 40h34v2h-34z"/><path d="m44 40h2v2h-2z"/><path d="m57.961 21.6c2.032-3.337 4.039-7.432 4.039-10.6a9 9 0 0 0 -18 0 17.2 17.2 0 0 0 2.061 7h-12.061v-13a3 3 0 0 0 -3-3h-26a3 3 0 0 0 -3 3v48a3 3 0 0 0 3 3h7.08a6.991 6.991 0 0 0 13.84 0h16.16a6.991 6.991 0 0 0 13.84 0h3.08a3 3 0 0 0 3-3v-22a12.958 12.958 0 0 0 -4.039-9.4zm-4.961-17.6a7.008 7.008 0 0 1 7 7c0 4.507-5.027 11.7-7 14.353-1.974-2.653-7-9.842-7-14.353a7.008 7.008 0 0 1 7-7zm-3.388 20.042c1.369 2.022 2.485 3.431 2.607 3.583a1 1 0 0 0 1.562 0c.055-.069.327-.414.719-.935a7 7 0 0 1 1.5 4.31v5h-12v-12h5c.2 0 .408.026.612.042zm-11.612-4.042v16h-34v-2.184a2.966 2.966 0 0 0 1 .184h26a3 3 0 0 0 3-3v-11zm-24-8h-10v-2h10zm2-8h4v11.131l-1.445-.963a1 1 0 0 0 -1.11 0l-1.445.963zm6 6h10v2h-10zm10-5v3h-10v-4h9a1 1 0 0 1 1 1zm-27-1h9v4h-10v-3a1 1 0 0 1 1-1zm-1 10h10v3a1 1 0 0 0 1.555.832l2.445-1.632 2.445 1.63a1 1 0 0 0 1.555-.83v-3h10v17a1 1 0 0 1 -1 1h-26a1 1 0 0 1 -1-1zm15 46a5 5 0 1 1 5-5 5.006 5.006 0 0 1 -5 5zm30 0a5 5 0 1 1 5-5 5.006 5.006 0 0 1 -5 5zm11-7a1 1 0 0 1 -1 1h-3.08a6.991 6.991 0 0 0 -13.84 0h-16.16a6.991 6.991 0 0 0 -13.84 0h-7.08a1 1 0 0 1 -1-1v-15h35a1 1 0 0 0 1-1v-17h7.107c.388.692.785 1.359 1.183 2h-5.29a1 1 0 0 0 -1 1v14a1 1 0 0 0 1 1h14a1 1 0 0 0 1-1v-6a9.017 9.017 0 0 0 -2.284-5.984c.361-.513.75-1.086 1.156-1.7a10.978 10.978 0 0 1 3.128 7.684z"/><path d="m28 21h2v2h-2z"/><path d="m30 29v-4h-2v3h-3v2h4a1 1 0 0 0 1-1z"/><path d="m19 52a3 3 0 1 0 3 3 3 3 0 0 0 -3-3zm0 4a1 1 0 1 1 1-1 1 1 0 0 1 -1 1z"/><path d="m49 52a3 3 0 1 0 3 3 3 3 0 0 0 -3-3zm0 4a1 1 0 1 1 1-1 1 1 0 0 1 -1 1z"/><path d="m58 11a5 5 0 1 0 -5 5 5.006 5.006 0 0 0 5-5zm-8 0a3 3 0 1 1 3 3 3 3 0 0 1 -3-3z"/></svg>